<?xml version="1.0" encoding="iso-8859-1"?>
<!-- Uploaded to: SVG Repo, www.svgrepo.com, Generator: SVG Repo Mixer Tools -->
<!DOCTYPE svg PUBLIC "-//W3C//DTD SVG 1.1//EN" "http://www.w3.org/Graphics/SVG/1.1/DTD/svg11.dtd">
<svg fill="#000000" version="1.1" id="Capa_1" xmlns="http://www.w3.org/2000/svg" xmlns:xlink="http://www.w3.org/1999/xlink" 
	 width="800px" height="800px" viewBox="0 0 187.705 187.706"
	 xml:space="preserve">
<g>
	<path d="M187.108,132.527c-0.319-2.185-3.773-3.068-5.131-1.355c-1.756,2.218-3.582,3.932-5.456,5.242
		c-1.209-0.516-2.625-0.527-3.681,0.246c-1.4,1.024-2.641,1.963-3.837,2.859c-15.314,2.48-32.408-15.482-43.676-25.427
		c-11.068-9.767-21.809-17.397-36.87-19.202c-29.526-3.539-78.47,7.503-77.621,45.359c0.087,3.897,5.44,3.67,5.888,0
		c3.114-25.471,27.157-35.989,50.039-39.031c19.927-2.648,36.217,2.189,51.256,15.132c11.245,9.679,26.259,24.972,41.129,29.106
		c-2.512,0.969-5.377,1.66-9.127,1.992c-13.343,1.184-27.173-0.816-40.292-3.002c-22.021-3.67-46.221-8.121-66.775-17.203
		c-3.529-1.561-6.606,3.289-3.094,5.293c24.363,13.91,54.366,20.596,81.827,24.48c10.886,1.54,57.394,6.021,57.554-14.622
		c0.421-0.295,0.844-0.579,1.261-0.909c-5.35,32.434-47.857,36.594-75.881,35.725c-28.761-0.891-74.669-7.162-94.458-31.041
		c-1.014-1.223-3.072,0.383-2.193,1.691C37.355,191.642,198.719,211.94,187.108,132.527z"/>
	<path d="M31.081,72.538c-2.11-3.092-5.893-3.573-8.72-1.124c-3.103,2.688-2.113,8.679-2.036,12.375
		c0.083,4.002,0.497,8.114,1.322,12.029c0.782,3.711,6.038,4.082,7.822,1.021c2.145-3.676,2.209-8.037,2.412-12.175
		C32.04,81.408,32.972,75.309,31.081,72.538z"/>
	<path d="M158.089,45.311c-16.26-12.133-37.152-22.8-47.734-40.734c-1.698-2.88-5.998-4.382-8.928-2.341
		C67.725,25.703,24.582,43.164,0.746,78.155c-2.918,4.283,3.428,8.753,6.96,5.37c28.44-27.241,63.089-44.606,95.315-66.576
		c8.206,10.823,19.608,18.871,30.597,26.754c7.722,5.54,15.552,10.892,22.914,16.915c1.43,1.17,2.699,2.424,3.886,3.723
		c-3.134-0.198-6.435,1.684-6.36,5.69c0.321,17.526,0.04,35.552,2.276,52.952c0.602,4.683,6.683,4.683,7.284,0
		c2.19-17.05,1.968-34.699,2.261-51.892c1.631,2.131,3.287,4.255,5.199,6.257c3.479,3.643,9.041,0.682,9.325-3.863
		C181.148,61.591,166.414,51.522,158.089,45.311z"/>
	<path d="M110.737,48.388c-9.611,1.902-19.358,1.054-29.04,2.189c-2.038,0.239-3.107,1.91-3.179,3.522
		c-0.762-1.034-2.786-1.02-3.093,0.508c-1.636,8.141-2.36,16.347-2.768,24.634c-0.067,1.366,1.043,2.903,2.412,3.167
		c11.716,2.263,23.574,1.734,35.407,2.747c1.979,0.169,3.594-1.771,3.612-3.612c0.096-9.986,0.965-19.936,0.884-29.929
		C114.954,49.321,112.861,47.968,110.737,48.388z M78.728,67.16c0.062,0.023,0.1,0.064,0.168,0.082
		c4.309,1.156,8.656,1.871,13.068,2.384c0.086,2.523,0.297,5.023,0.394,7.313c0.005,0.129,0.057,0.222,0.079,0.339
		c-4.462-0.117-8.918-0.318-13.347-0.899C78.94,73.302,78.808,70.231,78.728,67.16z M106.979,77.697
		c-3.567-0.197-7.143-0.261-10.717-0.33c0.035-0.143,0.094-0.266,0.101-0.429c0.098-2.261,0.227-4.519,0.385-6.776
		c3.512,0.382,7.23,0.693,10.592-0.01C107.205,72.666,107.058,75.18,106.979,77.697z M107.574,65.416
		c-3.286-0.733-6.8-0.457-10.194-0.373c0.311-1.792,0.606-3.584,0.529-5.373c-0.094-2.162-3.454-3.558-4.469-1.21
		c-0.862,1.996-1.265,4.225-1.425,6.532c-4.067-0.168-8.109-0.603-12.119-1.38c-0.473-0.091-0.872,0.003-1.22,0.172
		c-0.025-2.718-0.007-5.437,0.131-8.163c0.439,1.003,1.372,1.742,2.891,1.632c8.82-0.637,17.667-0.495,26.414-1.696
		C107.965,58.847,107.766,62.131,107.574,65.416z"/>
</g>
</svg>